<svg width="99" height="26" viewBox="0 0 99 26" fill="none" xmlns="http://www.w3.org/2000/svg">
    <path d="M0.624 18.6628C0.576 18.5028 0.616 18.3588 0.744 18.2308L0.984 18.0148C1.672 17.4068 2.016 16.5668 2.016 15.4948V10.5508L0.864 10.1188C0.704 10.0708 0.616 9.97476 0.6 9.83076C0.568 9.67076 0.616 9.54276 0.744 9.44676L4.8 6.06276C4.944 5.91876 5.088 5.88676 5.232 5.96676C5.376 6.03076 5.448 6.15876 5.448 6.35076V15.4948C5.448 16.5188 5.792 17.3588 6.48 18.0148L6.72 18.2308C6.848 18.3588 6.888 18.5028 6.84 18.6628C6.792 18.8388 6.672 18.9268 6.48 18.9268H0.984C0.792 18.9268 0.672 18.8388 0.624 18.6628ZM2.016 4.62276C1.6 4.22276 1.392 3.74276 1.392 3.18276C1.392 2.62276 1.6 2.15076 2.016 1.76676C2.432 1.36676 2.936 1.16676 3.528 1.16676C4.12 1.16676 4.624 1.36676 5.04 1.76676C5.472 2.15076 5.688 2.62276 5.688 3.18276C5.688 3.74276 5.472 4.22276 5.04 4.62276C4.624 5.02276 4.12 5.22276 3.528 5.22276C2.936 5.22276 2.432 5.02276 2.016 4.62276ZM7.62675 18.6628C7.57875 18.5028 7.61875 18.3588 7.74675 18.2308L7.98675 18.0148C8.67475 17.3908 9.01875 16.5508 9.01875 15.4948V10.5508L7.86675 10.1188C7.70675 10.0708 7.61875 9.97476 7.60275 9.83076C7.57075 9.67076 7.61875 9.54276 7.74675 9.44676L11.7548 6.11076C11.9308 5.96676 12.0908 5.92676 12.2348 5.99076C12.3788 6.05476 12.4508 6.19076 12.4508 6.39876V8.65476C12.4508 8.75076 12.4828 8.76676 12.5468 8.70276C13.2828 7.96676 14.1148 7.32676 15.0428 6.78276C15.9708 6.23876 16.8428 5.96676 17.6588 5.96676C18.5388 5.96676 19.2588 6.31876 19.8188 7.02276C20.0748 7.34276 20.2668 7.74276 20.3948 8.22276C20.5228 8.70276 20.5948 9.13476 20.6108 9.51876C20.6268 9.88676 20.6348 10.4388 20.6348 11.1748V15.4948C20.6348 16.0868 20.7228 16.5908 20.8988 17.0068C21.0908 17.4068 21.4268 17.8148 21.9068 18.2308C22.0348 18.3588 22.0748 18.5028 22.0268 18.6628C21.9788 18.8388 21.8588 18.9268 21.6668 18.9268H16.1708C15.9788 18.9268 15.8588 18.8388 15.8108 18.6628C15.7628 18.5028 15.8028 18.3588 15.9308 18.2308L16.1708 18.0148C16.8588 17.4548 17.2028 16.6148 17.2028 15.4948V10.5508C17.2028 10.0868 17.0908 9.71076 16.8668 9.42276C16.6588 9.11876 16.3468 8.96676 15.9308 8.96676C15.0668 8.96676 14.0908 9.38276 13.0028 10.2148C12.9068 10.2788 12.7228 10.4308 12.4508 10.6708V15.4948C12.4508 16.5988 12.7948 17.4388 13.4828 18.0148L13.7228 18.2308C13.8508 18.3588 13.8908 18.5028 13.8428 18.6628C13.7948 18.8388 13.6748 18.9268 13.4828 18.9268H7.98675C7.79475 18.9268 7.67475 18.8388 7.62675 18.6628ZM22.4119 7.55076V6.97476C22.4119 6.89476 22.4599 6.80676 22.5559 6.71076L26.6119 3.30276C26.7239 3.22276 26.8599 3.20676 27.0199 3.25476C27.1639 3.33476 27.2359 3.45476 27.2359 3.61476V6.63876H30.4519C30.7079 6.63876 30.8359 6.76676 30.8359 7.02276V7.55076C30.8359 7.80676 30.7079 7.93476 30.4519 7.93476H27.2359V8.46276L27.2599 15.0388C27.2599 16.4948 27.9399 17.1348 29.2999 16.9588C29.6039 16.9108 29.9159 16.8388 30.2359 16.7428C30.4919 16.6628 30.6599 16.7508 30.7399 17.0068L30.9079 17.5108C30.9559 17.6708 30.9239 17.8148 30.8119 17.9428C29.5639 19.0628 28.1639 19.6228 26.6119 19.6228C25.7959 19.6228 25.1319 19.3028 24.6199 18.6628C24.2679 18.2148 24.0439 17.7028 23.9479 17.1268C23.8679 16.5508 23.8279 15.7588 23.8279 14.7508V7.93476H22.7959C22.5399 7.93476 22.4119 7.80676 22.4119 7.55076ZM31.3215 4.31076C31.2895 4.16676 31.3455 4.03876 31.4895 3.92676L35.5215 0.542757C35.6655 0.414757 35.8175 0.398757 35.9775 0.494758C36.1055 0.558757 36.1695 0.678757 36.1695 0.854757V8.65476C36.1695 8.75076 36.2015 8.76676 36.2655 8.70276C38.1695 6.87876 39.8735 5.96676 41.3775 5.96676C42.2575 5.96676 42.9775 6.31876 43.5375 7.02276C43.7935 7.34276 43.9855 7.74276 44.1135 8.22276C44.2415 8.70276 44.3135 9.13476 44.3295 9.51876C44.3455 9.88676 44.3535 10.4388 44.3535 11.1748V15.4948C44.3535 16.5828 44.6975 17.4228 45.3855 18.0148L45.6255 18.2308C45.7535 18.3588 45.7935 18.5028 45.7455 18.6628C45.6975 18.8388 45.5775 18.9268 45.3855 18.9268H39.8895C39.6975 18.9268 39.5775 18.8388 39.5295 18.6628C39.4815 18.5028 39.5215 18.3588 39.6495 18.2308L39.8895 18.0148C40.5775 17.4388 40.9215 16.5988 40.9215 15.4948V10.5508C40.9215 10.0868 40.8095 9.71076 40.5855 9.42276C40.3775 9.11876 40.0655 8.96676 39.6495 8.96676C38.7855 8.96676 37.8095 9.38276 36.7215 10.2148C36.6255 10.2788 36.4415 10.4308 36.1695 10.6708V15.4948C36.1695 16.5988 36.5135 17.4388 37.2015 18.0148L37.4415 18.2308C37.5695 18.3588 37.6095 18.5028 37.5615 18.6628C37.5135 18.8388 37.3935 18.9268 37.2015 18.9268H31.7055C31.5135 18.9268 31.3935 18.8388 31.3455 18.6628C31.2975 18.5028 31.3375 18.3588 31.4655 18.2308L31.7055 18.0148C32.3935 17.4388 32.7375 16.5988 32.7375 15.4948V5.05476L31.5855 4.62276C31.4415 4.57476 31.3535 4.47076 31.3215 4.31076ZM47.349 15.6148C47.029 14.8468 46.829 14.0468 46.749 13.2148C46.685 12.3668 46.741 11.5428 46.917 10.7428C47.109 9.94276 47.461 9.19076 47.973 8.48676C48.501 7.76676 49.173 7.19076 49.989 6.75876C50.949 6.23076 52.005 5.96676 53.157 5.96676C54.597 5.96676 55.845 6.39076 56.901 7.23876C57.973 8.08676 58.741 9.22276 59.205 10.6468C59.269 10.8388 59.293 10.9828 59.277 11.0788C59.245 11.2068 59.165 11.2948 59.037 11.3428L50.997 14.2708C51.221 15.1188 51.629 15.7908 52.221 16.2868C52.829 16.7828 53.573 17.0308 54.453 17.0308C55.205 17.0308 55.901 16.8308 56.541 16.4308C57.197 16.0148 57.741 15.4708 58.173 14.7988C58.221 14.7028 58.285 14.6308 58.365 14.5828C58.461 14.5348 58.565 14.5348 58.677 14.5828L59.037 14.7028C59.293 14.7828 59.373 14.9508 59.277 15.2068C58.877 16.4548 58.197 17.4628 57.237 18.2308C56.277 18.9828 55.133 19.4308 53.805 19.5748C52.381 19.7348 51.085 19.4468 49.917 18.7108C48.813 18.0388 47.957 17.0068 47.349 15.6148ZM52.245 7.62276C51.573 7.73476 51.093 8.29476 50.805 9.30276C50.533 10.3108 50.509 11.5348 50.733 12.9748L55.317 11.3188C54.997 10.1028 54.549 9.15876 53.973 8.48676C53.413 7.79876 52.837 7.51076 52.245 7.62276ZM66.1993 19.6228C64.1353 19.6228 62.5753 19.2548 61.5193 18.5188C60.4633 17.7668 59.9353 16.9988 59.9353 16.2148C59.9353 15.7988 60.0873 15.4468 60.3913 15.1588C60.6953 14.8548 61.0553 14.7028 61.4713 14.7028C62.1593 14.7028 62.6233 14.9828 62.8633 15.5428C62.8953 15.6228 62.9593 15.7908 63.0553 16.0468C63.1513 16.2868 63.2233 16.4708 63.2713 16.5988C63.3353 16.7108 63.4313 16.8548 63.5593 17.0308C63.7033 17.2068 63.8633 17.3508 64.0393 17.4628C64.6313 17.8468 65.3113 18.0388 66.0793 18.0388C66.5593 18.0388 66.9993 17.9668 67.3993 17.8228C68.0073 17.6148 68.3673 17.2708 68.4793 16.7908C68.5913 16.3108 68.3833 15.8788 67.8553 15.4948C67.4713 15.2388 66.3513 14.7188 64.4953 13.9348C64.0473 13.7588 63.4793 13.4788 62.7913 13.0948C62.1193 12.6948 61.6153 12.2788 61.2793 11.8468C60.4153 10.6788 60.2873 9.51076 60.8953 8.34276C61.2153 7.73476 61.7513 7.20676 62.5033 6.75876C63.2553 6.31076 63.9833 6.05476 64.6873 5.99076C65.6153 5.91076 66.5433 5.99876 67.4713 6.25476C67.7433 6.31876 68.0233 6.35076 68.3113 6.35076C68.7433 6.35076 69.1673 6.25476 69.5833 6.06276C69.7433 5.99876 69.8553 5.96676 69.9193 5.96676C70.0953 5.96676 70.2073 6.06276 70.2553 6.25476L71.0713 9.71076C71.1193 9.93476 71.0473 10.0868 70.8553 10.1668L70.4953 10.3108C70.4473 10.3268 70.3913 10.3348 70.3273 10.3348C70.1993 10.3348 70.0953 10.2708 70.0153 10.1428L69.9913 10.1188C69.0633 8.67876 67.9353 7.83076 66.6073 7.57476C66.0153 7.47876 65.5033 7.50276 65.0713 7.64676C64.5593 7.80676 64.2313 8.08676 64.0873 8.48676C63.9593 8.87076 64.1113 9.25476 64.5433 9.63876C64.8633 9.89476 65.6633 10.2708 66.9433 10.7668C68.2233 11.2468 69.1593 11.6388 69.7513 11.9428C70.3113 12.2308 70.7593 12.5828 71.0953 12.9988C71.4313 13.3988 71.6473 13.8148 71.7433 14.2468C71.8393 14.6788 71.8713 15.0948 71.8393 15.4948C71.8233 15.8788 71.7513 16.2548 71.6233 16.6228C71.3033 17.5028 70.6473 18.2228 69.6553 18.7828C68.6633 19.3428 67.5113 19.6228 66.1993 19.6228ZM72.5012 4.31076C72.4692 4.16676 72.5172 4.04676 72.6452 3.95076L76.7012 0.542757C76.8292 0.414757 76.9732 0.390757 77.1332 0.470757C77.2772 0.550756 77.3492 0.694757 77.3492 0.902757V11.5588C77.3492 11.5908 77.3652 11.6148 77.3972 11.6308C77.4292 11.6308 77.4532 11.6148 77.4692 11.5828L77.8532 11.1268L80.3012 8.22276C80.9732 7.43876 81.5572 6.87076 82.0532 6.51876C82.5652 6.15076 83.1252 5.96676 83.7332 5.96676H83.8292C84.4532 5.99876 84.9572 6.23876 85.3412 6.68676C85.7412 7.11876 85.9412 7.67076 85.9412 8.34276C85.9412 8.88676 85.7412 9.35876 85.3412 9.75876C84.9572 10.1428 84.4852 10.3348 83.9252 10.3348C83.5092 10.3348 83.1892 10.2708 82.9652 10.1428C82.7572 10.0148 82.5412 9.80676 82.3172 9.51876C82.1732 9.35876 82.0052 9.27876 81.8132 9.27876C81.4932 9.27876 81.0612 9.54276 80.5172 10.0708L83.8052 15.8068C84.2052 16.4948 84.5492 16.9588 84.8372 17.1988C85.1252 17.4388 85.6692 17.7668 86.4692 18.1828C86.6452 18.2628 86.7172 18.4068 86.6852 18.6148C86.6372 18.8228 86.5092 18.9268 86.3012 18.9268H80.8292C80.7172 18.9268 80.6212 18.8948 80.5412 18.8308C80.4612 18.7508 80.4212 18.6548 80.4212 18.5428L80.4692 18.3508C80.7572 17.8548 80.7572 17.3508 80.4692 16.8388L78.1892 12.9028C78.1572 12.8548 78.1172 12.8548 78.0692 12.9028L77.3492 13.7908V15.4948C77.3492 16.5988 77.6932 17.4388 78.3812 18.0148L78.6212 18.2308C78.7492 18.3588 78.7892 18.5028 78.7412 18.6628C78.6932 18.8388 78.5732 18.9268 78.3812 18.9268H72.8852C72.6932 18.9268 72.5732 18.8388 72.5252 18.6628C72.4772 18.5028 72.5172 18.3588 72.6452 18.2308L72.8852 18.0148C73.5732 17.4068 73.9172 16.5668 73.9172 15.4948V5.05476L72.7652 4.62276C72.6212 4.57476 72.5332 4.47076 72.5012 4.31076ZM86.4849 9.25476C86.4529 9.11076 86.5009 8.99076 86.6289 8.89476L90.0369 6.06276C90.1169 5.99876 90.2049 5.96676 90.3009 5.96676C90.4609 5.96676 90.5809 6.05476 90.6609 6.23076L94.7889 15.9988C94.8369 16.0788 94.8769 16.0788 94.9089 15.9988C95.4849 14.7508 95.9409 13.6628 96.2769 12.7348C96.8049 11.2148 96.5969 10.2948 95.6529 9.97476C95.4289 9.89476 95.2849 9.83876 95.2209 9.80676C94.7569 9.56676 94.4449 9.22276 94.2849 8.77476C94.0769 8.27876 94.0769 7.77476 94.2849 7.26276C94.4929 6.75076 94.8529 6.39076 95.3649 6.18276C95.6369 6.05476 95.9729 5.99076 96.3729 5.99076C97.4289 5.99076 98.1089 6.44676 98.4129 7.35876C98.7809 8.44676 98.5729 10.1028 97.7889 12.3268C97.0049 14.5668 96.0289 16.8068 94.8609 19.0468C93.7089 21.3028 92.4929 23.0308 91.2129 24.2308C90.6209 24.8228 89.9969 25.1188 89.3409 25.1188C88.8129 25.1188 88.3569 24.9268 87.9729 24.5428C87.5889 24.1748 87.3969 23.7188 87.3969 23.1748C87.3969 22.6308 87.5889 22.1668 87.9729 21.7828C88.3569 21.4148 88.8129 21.2308 89.3409 21.2308C89.7249 21.2308 90.0689 21.3268 90.3729 21.5188C90.5809 21.6468 90.7809 21.7108 90.9729 21.7108C91.3729 21.7108 91.8129 21.3988 92.2929 20.7748C92.3089 20.7428 92.3489 20.6788 92.4129 20.5828C92.4929 20.4868 92.5569 20.3988 92.6049 20.3188L88.2849 10.1428L86.7489 9.56676C86.6049 9.51876 86.5169 9.41476 86.4849 9.25476Z" fill="#101010"/>
</svg>
