<svg width="24" height="24" viewBox="0 0 24 24" fill="none" xmlns="http://www.w3.org/2000/svg">
    <path fill-rule="evenodd" clip-rule="evenodd" d="M11.0968 5C7.72962 5 5 7.56905 5 10.7381C5 13.9072 7.72962 16.4763 11.0968 16.4763C12.536 16.4763 13.8596 16.0063 14.9023 15.2215L17.8436 17.9897C18.1081 18.2387 18.537 18.2387 18.8016 17.9897C19.0661 17.7407 19.0661 17.3371 18.8016 17.0881L15.8603 14.3198C16.6942 13.3385 17.1936 12.0927 17.1936 10.7381C17.1936 7.56905 14.4639 5 11.0968 5ZM6.35484 10.7381C6.35484 8.27329 8.47788 6.27514 11.0968 6.27514C13.7157 6.27514 15.8387 8.27329 15.8387 10.7381C15.8387 11.9686 15.3106 13.0818 14.4543 13.8897C13.5951 14.7005 12.4087 15.2011 11.0968 15.2011C8.47788 15.2011 6.35484 13.203 6.35484 10.7381Z" fill="#191919"/>
</svg>
