<svg width="24" height="25" viewBox="0 0 24 25" fill="none" xmlns="http://www.w3.org/2000/svg">
    <path fill-rule="evenodd" clip-rule="evenodd" d="M11.0968 5.5C7.72962 5.5 5 8.06905 5 11.2381C5 14.4072 7.72962 16.9763 11.0968 16.9763C12.536 16.9763 13.8596 16.5063 14.9023 15.7215L17.8436 18.4897C18.1081 18.7387 18.537 18.7387 18.8016 18.4897C19.0661 18.2407 19.0661 17.8371 18.8016 17.5881L15.8603 14.8198C16.6942 13.8385 17.1936 12.5927 17.1936 11.2381C17.1936 8.06905 14.4639 5.5 11.0968 5.5ZM6.35484 11.2381C6.35484 8.77329 8.47788 6.77514 11.0968 6.77514C13.7157 6.77514 15.8387 8.77329 15.8387 11.2381C15.8387 12.4686 15.3106 13.5818 14.4543 14.3897C13.5951 15.2005 12.4087 15.7011 11.0968 15.7011C8.47788 15.7011 6.35484 13.703 6.35484 11.2381Z" fill="#DCDCDC"/>
</svg>
