<svg width="16" height="14" viewBox="0 0 16 14" fill="none" xmlns="http://www.w3.org/2000/svg">
    <path d="M10.9 7C10.9 8.92278 10.5658 10.6588 10.0294 11.9104C9.76114 12.5363 9.44426 13.0365 9.09749 13.3787C8.75115 13.7205 8.3804 13.9 8 13.9C7.6196 13.9 7.24885 13.7205 6.90251 13.3787C6.55574 13.0365 6.23886 12.5363 5.97059 11.9104C5.43421 10.6588 5.1 8.92278 5.1 7C5.1 5.07722 5.43421 3.34122 5.97059 2.08964C6.23886 1.46368 6.55574 0.963503 6.90251 0.621269C7.24885 0.27946 7.6196 0.1 8 0.1C8.3804 0.1 8.75115 0.27946 9.09749 0.621269C9.44426 0.963503 9.76114 1.46368 10.0294 2.08964C10.5658 3.34122 10.9 5.07722 10.9 7Z" fill="url(#paint0_angular_221_3055)" stroke="#FFFAE3" stroke-width="0.2"/>
    <path d="M18.9 7C18.9 8.92278 18.5658 10.6588 18.0294 11.9104C17.7611 12.5363 17.4443 13.0365 17.0975 13.3787C16.7512 13.7205 16.3804 13.9 16 13.9C15.6196 13.9 15.2488 13.7205 14.9025 13.3787C14.5557 13.0365 14.2389 12.5363 13.9706 11.9104C13.4342 10.6588 13.1 8.92278 13.1 7C13.1 5.07722 13.4342 3.34122 13.9706 2.08964C14.2389 1.46368 14.5557 0.963503 14.9025 0.621269C15.2488 0.27946 15.6196 0.1 16 0.1C16.3804 0.1 16.7512 0.27946 17.0975 0.621269C17.4443 0.963503 17.7611 1.46368 18.0294 2.08964C18.5658 3.34122 18.9 5.07722 18.9 7Z" fill="url(#paint1_angular_221_3055)" stroke="#FFFAE3" stroke-width="0.2"/>
    <path d="M2.9 7C2.9 8.92278 2.56579 10.6588 2.02941 11.9104C1.76114 12.5363 1.44426 13.0365 1.09749 13.3787C0.751152 13.7205 0.380397 13.9 0 13.9C-0.380397 13.9 -0.751152 13.7205 -1.09749 13.3787C-1.44426 13.0365 -1.76114 12.5363 -2.02941 11.9104C-2.56579 10.6588 -2.9 8.92278 -2.9 7C-2.9 5.07722 -2.56579 3.34122 -2.02941 2.08964C-1.76114 1.46368 -1.44426 0.963503 -1.09749 0.621269C-0.751152 0.27946 -0.380397 0.1 0 0.1C0.380397 0.1 0.751152 0.27946 1.09749 0.621269C1.44426 0.963503 1.76114 1.46368 2.02941 2.08964C2.56579 3.34122 2.9 5.07722 2.9 7Z" fill="url(#paint2_angular_221_3055)" stroke="#FFFAE3" stroke-width="0.2"/>
    <defs>
        <radialGradient id="paint0_angular_221_3055" cx="0" cy="0" r="1" gradientUnits="userSpaceOnUse" gradientTransform="translate(8 7) rotate(76.343) scale(7.20367 3.18137)">
            <stop offset="0.0494523" stop-color="#6995CB"/>
            <stop offset="0.350388" stop-color="#FFEFAA"/>
            <stop offset="0.500396" stop-color="#FFDDB6"/>
            <stop offset="0.884984" stop-color="#AFBABA"/>
        </radialGradient>
        <radialGradient id="paint1_angular_221_3055" cx="0" cy="0" r="1" gradientUnits="userSpaceOnUse" gradientTransform="translate(16 7) rotate(76.343) scale(7.20367 3.18137)">
            <stop offset="0.0494523" stop-color="#6995CB"/>
            <stop offset="0.350388" stop-color="#FFEFAA"/>
            <stop offset="0.500396" stop-color="#FFDDB6"/>
            <stop offset="0.884984" stop-color="#AFBABA"/>
        </radialGradient>
        <radialGradient id="paint2_angular_221_3055" cx="0" cy="0" r="1" gradientUnits="userSpaceOnUse" gradientTransform="translate(-8.12022e-08 7) rotate(76.343) scale(7.20367 3.18137)">
            <stop offset="0.0494523" stop-color="#6995CB"/>
            <stop offset="0.350388" stop-color="#FFEFAA"/>
            <stop offset="0.500396" stop-color="#FFDDB6"/>
            <stop offset="0.884984" stop-color="#AFBABA"/>
        </radialGradient>
    </defs>
</svg>
